<?xml version="1.0" encoding="UTF-8" standalone="no"?>
<!DOCTYPE svg PUBLIC "-//W3C//DTD SVG 1.1//EN" "http://www.w3.org/Graphics/SVG/1.1/DTD/svg11.dtd">
<svg width="100%" height="100%" viewBox="0 0 973 420" version="1.1" xmlns="http://www.w3.org/2000/svg" xmlns:xlink="http://www.w3.org/1999/xlink" xml:space="preserve" xmlns:serif="http://www.serif.com/" style="fill-rule:evenodd;clip-rule:evenodd;stroke-linejoin:round;stroke-miterlimit:1.41421;">
    <g transform="matrix(1,0,0,1,-227.822,-928.239)">
        <g>
            <g transform="matrix(1,0,0,0.772727,-192,383.876)">
                <path d="M1392,984L420,984C418.927,1110.51 513.813,1220.91 648,1248L1392,1248L1392,984Z" style="fill:rgb(148,148,148);"/>
            </g>
            <g transform="matrix(1,0,0,1,-192,100.239)">
                <g transform="matrix(1.33083e-17,0.140337,-0.430556,1.76498e-17,1114.92,899.584)">
                    <path d="M519,743.997C519,740.685 510.763,738 500.601,738C467.17,738 396.83,738 363.399,738C353.237,738 345,740.685 345,743.997C345,743.999 345,744.001 345,744.003C345,747.315 353.237,750 363.399,750C396.83,750 467.17,750 500.601,750C510.763,750 519,747.315 519,744.003C519,744.001 519,743.999 519,743.997Z" style="fill:rgb(78,108,134);"/>
                </g>
                <g transform="matrix(1.33083e-17,0.140337,-0.430556,1.76498e-17,1143.33,899.584)">
                    <path d="M519,743.997C519,740.685 510.763,738 500.601,738C467.17,738 396.83,738 363.399,738C353.237,738 345,740.685 345,743.997C345,743.999 345,744.001 345,744.003C345,747.315 353.237,750 363.399,750C396.83,750 467.17,750 500.601,750C510.763,750 519,747.315 519,744.003C519,744.001 519,743.999 519,743.997Z" style="fill:rgb(78,108,134);"/>
                </g>
                <g transform="matrix(1.33083e-17,0.140337,-0.430556,1.76498e-17,1171.75,899.584)">
                    <path d="M519,743.997C519,740.685 510.763,738 500.601,738C467.17,738 396.83,738 363.399,738C353.237,738 345,740.685 345,743.997C345,743.999 345,744.001 345,744.003C345,747.315 353.237,750 363.399,750C396.83,750 467.17,750 500.601,750C510.763,750 519,747.315 519,744.003C519,744.001 519,743.999 519,743.997Z" style="fill:rgb(78,108,134);"/>
                </g>
                <g transform="matrix(1.02054e-17,0.166667,-0.358974,2.19808e-17,1076.31,889)">
                    <rect x="348" y="558" width="30" height="234" style="fill:rgb(100,118,140);"/>
                </g>
            </g>
            <g transform="matrix(1,0,0,1,66,63.8206)">
                <g transform="matrix(1.33083e-17,0.140337,-0.430556,1.76498e-17,1114.92,899.584)">
                    <path d="M519,743.997C519,740.685 510.763,738 500.601,738C467.17,738 396.83,738 363.399,738C353.237,738 345,740.685 345,743.997C345,743.999 345,744.001 345,744.003C345,747.315 353.237,750 363.399,750C396.83,750 467.17,750 500.601,750C510.763,750 519,747.315 519,744.003C519,744.001 519,743.999 519,743.997Z" style="fill:rgb(78,108,134);"/>
                </g>
                <g transform="matrix(1.33083e-17,0.140337,-0.430556,1.76498e-17,1143.33,899.584)">
                    <path d="M519,743.997C519,740.685 510.763,738 500.601,738C467.17,738 396.83,738 363.399,738C353.237,738 345,740.685 345,743.997C345,743.999 345,744.001 345,744.003C345,747.315 353.237,750 363.399,750C396.83,750 467.17,750 500.601,750C510.763,750 519,747.315 519,744.003C519,744.001 519,743.999 519,743.997Z" style="fill:rgb(78,108,134);"/>
                </g>
                <g transform="matrix(1.33083e-17,0.140337,-0.430556,1.76498e-17,1171.75,899.584)">
                    <path d="M519,743.997C519,740.685 510.763,738 500.601,738C467.17,738 396.83,738 363.399,738C353.237,738 345,740.685 345,743.997C345,743.999 345,744.001 345,744.003C345,747.315 353.237,750 363.399,750C396.83,750 467.17,750 500.601,750C510.763,750 519,747.315 519,744.003C519,744.001 519,743.999 519,743.997Z" style="fill:rgb(78,108,134);"/>
                </g>
                <g transform="matrix(1.02054e-17,0.166667,-0.358974,2.19808e-17,1076.31,889)">
                    <rect x="348" y="558" width="30" height="234" style="fill:rgb(100,118,140);"/>
                </g>
            </g>
            <g transform="matrix(1,0,0,1,150,63.8206)">
                <g transform="matrix(1.33083e-17,0.140337,-0.430556,1.76498e-17,1114.92,899.584)">
                    <path d="M519,743.997C519,740.685 510.763,738 500.601,738C467.17,738 396.83,738 363.399,738C353.237,738 345,740.685 345,743.997C345,743.999 345,744.001 345,744.003C345,747.315 353.237,750 363.399,750C396.83,750 467.17,750 500.601,750C510.763,750 519,747.315 519,744.003C519,744.001 519,743.999 519,743.997Z" style="fill:rgb(78,108,134);"/>
                </g>
                <g transform="matrix(1.33083e-17,0.140337,-0.430556,1.76498e-17,1143.33,899.584)">
                    <path d="M519,743.997C519,740.685 510.763,738 500.601,738C467.17,738 396.83,738 363.399,738C353.237,738 345,740.685 345,743.997C345,743.999 345,744.001 345,744.003C345,747.315 353.237,750 363.399,750C396.83,750 467.17,750 500.601,750C510.763,750 519,747.315 519,744.003C519,744.001 519,743.999 519,743.997Z" style="fill:rgb(78,108,134);"/>
                </g>
                <g transform="matrix(1.33083e-17,0.140337,-0.430556,1.76498e-17,1171.75,899.584)">
                    <path d="M519,743.997C519,740.685 510.763,738 500.601,738C467.17,738 396.83,738 363.399,738C353.237,738 345,740.685 345,743.997C345,743.999 345,744.001 345,744.003C345,747.315 353.237,750 363.399,750C396.83,750 467.17,750 500.601,750C510.763,750 519,747.315 519,744.003C519,744.001 519,743.999 519,743.997Z" style="fill:rgb(78,108,134);"/>
                </g>
                <g transform="matrix(1.02054e-17,0.166667,-0.358974,2.19808e-17,1076.31,889)">
                    <rect x="348" y="558" width="30" height="234" style="fill:rgb(100,118,140);"/>
                </g>
            </g>
            <g transform="matrix(1,0,0,1,234,63.8206)">
                <g transform="matrix(1.33083e-17,0.140337,-0.430556,1.76498e-17,1114.92,899.584)">
                    <path d="M519,743.997C519,740.685 510.763,738 500.601,738C467.17,738 396.83,738 363.399,738C353.237,738 345,740.685 345,743.997C345,743.999 345,744.001 345,744.003C345,747.315 353.237,750 363.399,750C396.83,750 467.17,750 500.601,750C510.763,750 519,747.315 519,744.003C519,744.001 519,743.999 519,743.997Z" style="fill:rgb(78,108,134);"/>
                </g>
                <g transform="matrix(1.33083e-17,0.140337,-0.430556,1.76498e-17,1143.33,899.584)">
                    <path d="M519,743.997C519,740.685 510.763,738 500.601,738C467.17,738 396.83,738 363.399,738C353.237,738 345,740.685 345,743.997C345,743.999 345,744.001 345,744.003C345,747.315 353.237,750 363.399,750C396.83,750 467.17,750 500.601,750C510.763,750 519,747.315 519,744.003C519,744.001 519,743.999 519,743.997Z" style="fill:rgb(78,108,134);"/>
                </g>
                <g transform="matrix(1.02054e-17,0.166667,-0.145299,8.89701e-18,907.077,889)">
                    <rect x="348" y="558" width="30" height="234" style="fill:rgb(100,118,140);"/>
                </g>
            </g>
            <g transform="matrix(1,0,0,0.772727,-192,383.876)">
                <path d="M1392,984L420,984C419.139,995.121 421.691,1015.19 421.691,1015.19L1392,1015.06L1392,984Z" style="fill:rgb(65,76,80);"/>
            </g>
            <g transform="matrix(1,0,0,1,-192,100.239)">
                <path d="M505.755,1134.94L539.94,1061.65L556.296,1061.65L521.689,1134.94L548.434,1134.94L548.434,1105.53L563.104,1105.53L563.104,1134.94L571.247,1134.94L571.247,1148.77L563.104,1148.77L563.104,1164L548.434,1164L548.434,1148.77L505.755,1148.77L505.755,1134.94Z" style="fill:white;fill-rule:nonzero;"/>
                <path d="M577.635,1150.17L617.576,1100.19C619.12,1098.18 620.173,1096.31 620.735,1094.58C621.109,1092.94 621.296,1091.39 621.296,1089.94C621.296,1086.11 620.103,1082.76 617.716,1079.91C615.236,1077.05 611.726,1075.58 607.187,1075.48C603.163,1075.48 599.817,1076.77 597.149,1079.34C594.388,1081.92 592.75,1085.55 592.236,1090.22L577.635,1090.22C578.009,1081.71 580.864,1074.66 586.199,1069.1C591.58,1063.67 598.202,1060.91 606.064,1060.81C614.862,1060.91 621.998,1063.71 627.474,1069.24C633.042,1074.71 635.874,1081.66 635.967,1090.08C635.967,1096.82 633.908,1102.81 629.79,1108.05L596.868,1149.33L635.967,1149.33L635.967,1164L577.635,1164L577.635,1150.17Z" style="fill:white;fill-rule:nonzero;"/>
            </g>
            <g transform="matrix(1,0,0,1,-480,112.239)">
                <path d="M960,936L900,936L852,996L852,1032L960,1032L960,936Z" style="fill:rgb(86,95,103);"/>
            </g>
            <g transform="matrix(0.619522,0.32037,-0.459341,0.88826,456.026,124.383)">
                <rect x="432" y="864" width="144" height="12" style="fill:rgb(86,95,103);"/>
            </g>
            <g transform="matrix(1,0,0,1,-192,100.239)">
                <path d="M1260,936L1056,936L1056,828L933.931,828L876,879L876,972L792,972L792,1044L1308,1044L1260,936Z" style="fill:rgb(60,72,82);"/>
            </g>
            <g transform="matrix(0.666667,0,0,1,72,130.239)">
                <path d="M984,864.653C984,862.888 982.949,861.196 981.077,859.949C979.206,858.701 976.667,858 974.021,858C965.8,858 954.2,858 945.979,858C940.468,858 936,860.979 936,864.653C936,867.987 936,872.013 936,875.347C936,877.112 937.051,878.804 938.923,880.051C940.794,881.299 943.333,882 945.979,882C954.2,882 965.8,882 974.021,882C976.667,882 979.206,881.299 981.077,880.051C982.949,878.804 984,877.112 984,875.347C984,872.013 984,867.987 984,864.653Z" style="fill:rgb(104,184,255);"/>
            </g>
            <g transform="matrix(0.666667,0,0,1,120,88.2392)">
                <path d="M984,864.653C984,862.888 982.949,861.196 981.077,859.949C979.206,858.701 976.667,858 974.021,858C965.8,858 954.2,858 945.979,858C940.468,858 936,860.979 936,864.653C936,867.987 936,872.013 936,875.347C936,877.112 937.051,878.804 938.923,880.051C940.794,881.299 943.333,882 945.979,882C954.2,882 965.8,882 974.021,882C976.667,882 979.206,881.299 981.077,880.051C982.949,878.804 984,877.112 984,875.347C984,872.013 984,867.987 984,864.653Z" style="fill:rgb(104,184,255);"/>
            </g>
            <g transform="matrix(0.666667,0,0,1,174,88.2392)">
                <path d="M984,864.653C984,862.888 982.949,861.196 981.077,859.949C979.206,858.701 976.667,858 974.021,858C965.8,858 954.2,858 945.979,858C940.468,858 936,860.979 936,864.653C936,867.987 936,872.013 936,875.347C936,877.112 937.051,878.804 938.923,880.051C940.794,881.299 943.333,882 945.979,882C954.2,882 965.8,882 974.021,882C976.667,882 979.206,881.299 981.077,880.051C982.949,878.804 984,877.112 984,875.347C984,872.013 984,867.987 984,864.653Z" style="fill:rgb(104,184,255);"/>
            </g>
        </g>
    </g>
</svg>
