<?xml version="1.0" encoding="UTF-8" standalone="no"?>
<!DOCTYPE svg PUBLIC "-//W3C//DTD SVG 1.1//EN" "http://www.w3.org/Graphics/SVG/1.1/DTD/svg11.dtd">
<svg width="100%" height="100%" viewBox="0 0 108 144" version="1.1" xmlns="http://www.w3.org/2000/svg" xmlns:xlink="http://www.w3.org/1999/xlink" xml:space="preserve" xmlns:serif="http://www.serif.com/" style="fill-rule:evenodd;clip-rule:evenodd;stroke-linejoin:round;stroke-miterlimit:1.41421;">
    <g transform="matrix(1,0,0,1,-738,-288)">
        <g>
            <g transform="matrix(0.857143,0,0,1.09091,105.429,-39.2727)">
                <path d="M864,349.5C864,336.372 857.363,323.781 845.548,314.498C833.733,305.215 817.709,300 801,300C801,300 801,300 801,300C766.206,300 738,322.162 738,349.5C738,386.961 738,432 738,432L864,432C864,432 864,386.961 864,349.5Z" style="fill:rgb(51,101,141);"/>
            </g>
            <g transform="matrix(1,0,0,1,0.833848,-11.1662)">
                <circle cx="791.166" cy="341.166" r="29.166" style="fill:rgb(0,197,54);"/>
                <path d="M791.355,312.001L791.543,312.002L791.731,312.005L791.918,312.01L792.106,312.015L792.293,312.021L792.48,312.029L792.666,312.038L792.852,312.048L793.038,312.059L793.224,312.072L793.409,312.085L793.594,312.1L793.778,312.116L793.963,312.133L794.146,312.151L794.33,312.17L794.513,312.19L794.696,312.212L794.879,312.235L795.061,312.258L795.243,312.283L795.424,312.309L795.605,312.336L795.786,312.365L795.967,312.394L796.147,312.424L796.326,312.456L796.506,312.489L796.684,312.522L796.863,312.557L797.041,312.593L797.219,312.63L797.396,312.668L797.573,312.707L797.75,312.747L797.926,312.789L798.101,312.831L798.277,312.874L798.452,312.919L798.626,312.964L798.8,313.011L798.974,313.059L799.147,313.107L799.32,313.157L799.492,313.208L799.664,313.259L799.835,313.312L800.006,313.366L800.177,313.421L800.347,313.477L800.516,313.534L800.686,313.591L800.854,313.65L801.022,313.71L801.19,313.771L801.357,313.833L801.524,313.896L801.69,313.96L801.856,314.024L802.021,314.09L802.186,314.157L802.351,314.225L802.514,314.294L802.678,314.363L802.84,314.434L803.003,314.506L803.164,314.578L803.326,314.652L803.486,314.726L803.647,314.802L803.806,314.878L803.965,314.955L804.124,315.033L804.282,315.113L804.439,315.193L804.596,315.274L804.753,315.356L804.908,315.439L805.064,315.522L805.218,315.607L805.372,315.693L805.526,315.779L805.679,315.867L805.831,315.955L805.983,316.044L806.134,316.134L806.285,316.225L806.435,316.317L806.585,316.41L806.733,316.503L806.882,316.598L807.029,316.693L807.176,316.789L807.323,316.886L807.468,316.984L807.614,317.083L807.758,317.182L807.902,317.283L808.045,317.384L808.188,317.486L808.33,317.589L808.471,317.693L808.612,317.797L808.752,317.903L808.892,318.009L809.03,318.116L809.168,318.224L809.306,318.333L809.443,318.442L809.579,318.553L809.714,318.664L809.849,318.775L809.983,318.888L810.116,319.002L810.249,319.116L810.381,319.231L810.512,319.347L810.643,319.463L810.773,319.581L810.902,319.699L811.03,319.818L811.158,319.937L811.285,320.058L811.411,320.179L811.537,320.301L811.662,320.423L811.786,320.547L811.909,320.671L812.032,320.796L812.154,320.921L812.275,321.047L812.395,321.174L812.515,321.302L812.634,321.431L812.752,321.56L812.869,321.69L812.986,321.82L813.101,321.951L813.216,322.083L813.331,322.216L813.444,322.349L813.557,322.484L813.669,322.618L813.78,322.754L813.89,322.89L814,323.026L814.108,323.164L814.216,323.302L814.323,323.441L814.429,323.58L814.535,323.72L814.639,323.861L814.743,324.002L814.846,324.144L814.948,324.287L815.05,324.43L815.15,324.574L815.25,324.719L815.348,324.864L815.446,325.01L815.543,325.156L815.639,325.303L815.735,325.451L815.829,325.599L815.923,325.748L816.015,325.897L816.107,326.047L816.198,326.198L816.288,326.349L816.377,326.501L816.466,326.653L816.553,326.806L816.64,326.96L816.725,327.114L816.81,327.269L816.894,327.424L816.977,327.58L817.059,327.736L817.14,327.893L817.22,328.05L817.299,328.208L817.377,328.367L817.454,328.526L817.531,328.686L817.606,328.846L817.681,329.007L817.754,329.168L817.827,329.33L817.898,329.492L817.969,329.655L818.039,329.818L818.108,329.982L818.175,330.146L818.242,330.311L818.308,330.476L818.373,330.642L818.437,330.808L818.499,330.975L818.561,331.142L818.622,331.31L818.682,331.478L818.741,331.647L818.799,331.816L818.856,331.985L818.911,332.156L818.966,332.326L819.02,332.497L819.073,332.668L819.125,332.84L819.175,333.013L819.225,333.185L819.274,333.359L819.321,333.532L819.368,333.706L819.413,333.881L819.458,334.056L819.501,334.231L819.544,334.407L819.585,334.583L819.625,334.759L819.664,334.936L819.702,335.114L819.739,335.291L819.775,335.469L819.81,335.648L819.844,335.827L819.876,336.006L819.908,336.186L819.938,336.366L819.968,336.546L819.996,336.727L820.023,336.908L820.049,337.09L820.074,337.271L820.098,337.454L820.12,337.636L820.142,337.819L820.162,338.002L820.182,338.186L820.2,338.37L820.217,338.554L820.233,338.739L820.247,338.923L820.261,339.109L820.273,339.294L820.284,339.48L820.294,339.666L820.303,339.853L820.311,340.039L820.317,340.226L820.323,340.414L820.327,340.601L820.33,340.789L820.332,340.978L820.332,341.166L820.332,341.355L820.33,341.543L820.327,341.731L820.323,341.918L820.317,342.106L820.311,342.293L820.303,342.48L820.294,342.666L820.284,342.852L820.273,343.038L820.261,343.224L820.247,343.409L820.233,343.594L820.217,343.778L820.2,343.963L820.182,344.146L820.162,344.33L820.142,344.513L820.12,344.696L820.098,344.879L820.074,345.061L820.049,345.243L820.023,345.424L819.996,345.605L819.968,345.786L819.938,345.967L819.908,346.147L819.876,346.326L819.844,346.506L819.81,346.684L819.775,346.863L819.739,347.041L819.702,347.219L819.664,347.396L819.625,347.573L819.585,347.75L819.544,347.926L819.501,348.101L819.458,348.277L819.413,348.452L819.368,348.626L819.321,348.8L819.274,348.974L819.225,349.147L819.175,349.32L819.125,349.492L819.073,349.664L819.02,349.835L818.966,350.006L818.911,350.177L818.856,350.347L818.799,350.516L818.741,350.686L818.682,350.854L818.622,351.022L818.561,351.19L818.499,351.357L818.437,351.524L818.373,351.69L818.308,351.856L818.242,352.021L818.175,352.186L818.108,352.351L818.039,352.514L817.969,352.678L817.898,352.84L817.827,353.003L817.754,353.164L817.681,353.326L817.606,353.486L817.531,353.647L817.454,353.806L817.377,353.965L817.299,354.124L817.22,354.282L817.14,354.439L817.059,354.596L816.977,354.753L816.894,354.908L816.81,355.064L816.725,355.218L816.64,355.372L816.553,355.526L816.466,355.679L816.377,355.831L816.288,355.983L816.198,356.134L816.107,356.285L816.015,356.435L815.923,356.585L815.829,356.733L815.735,356.882L815.639,357.029L815.543,357.176L815.446,357.323L815.348,357.468L815.25,357.614L815.15,357.758L815.05,357.902L814.948,358.045L814.846,358.188L814.743,358.33L814.639,358.471L814.535,358.612L814.429,358.752L814.323,358.892L814.216,359.03L814.108,359.168L814,359.306L813.89,359.443L813.78,359.579L813.669,359.714L813.557,359.849L813.444,359.983L813.331,360.116L813.216,360.249L813.101,360.381L812.986,360.512L812.869,360.643L812.752,360.773L812.634,360.902L812.515,361.03L812.395,361.158L812.275,361.285L812.154,361.411L812.032,361.537L811.909,361.662L811.786,361.786L811.662,361.909L811.537,362.032L811.411,362.154L811.285,362.275L811.158,362.395L811.03,362.515L810.902,362.634L810.773,362.752L810.643,362.869L810.512,362.986L810.381,363.101L810.249,363.216L810.116,363.331L809.983,363.444L809.849,363.557L809.714,363.669L809.579,363.78L809.443,363.89L809.306,364L809.168,364.108L809.03,364.216L808.892,364.323L808.752,364.429L808.612,364.535L808.471,364.639L808.33,364.743L808.188,364.846L808.045,364.948L807.902,365.05L807.758,365.15L807.614,365.25L807.468,365.348L807.323,365.446L807.176,365.543L807.029,365.639L806.882,365.735L806.733,365.829L806.585,365.923L806.435,366.015L806.285,366.107L806.134,366.198L805.983,366.288L805.831,366.377L805.679,366.466L805.526,366.553L805.372,366.64L805.218,366.725L805.064,366.81L804.908,366.894L804.753,366.977L804.596,367.059L804.439,367.14L804.282,367.22L804.124,367.299L803.965,367.377L803.806,367.454L803.647,367.531L803.486,367.606L803.326,367.681L803.164,367.754L803.003,367.827L802.84,367.898L802.678,367.969L802.514,368.039L802.351,368.108L802.186,368.175L802.021,368.242L801.856,368.308L801.69,368.373L801.524,368.437L801.357,368.499L801.19,368.561L801.022,368.622L800.854,368.682L800.686,368.741L800.516,368.799L800.347,368.856L800.177,368.911L800.006,368.966L799.835,369.02L799.664,369.073L799.492,369.125L799.32,369.175L799.147,369.225L798.974,369.274L798.8,369.321L798.626,369.368L798.452,369.413L798.277,369.458L798.101,369.501L797.926,369.544L797.75,369.585L797.573,369.625L797.396,369.664L797.219,369.702L797.041,369.739L796.863,369.775L796.684,369.81L796.506,369.844L796.326,369.876L796.147,369.908L795.967,369.938L795.786,369.968L795.605,369.996L795.424,370.023L795.243,370.049L795.061,370.074L794.879,370.098L794.696,370.12L794.513,370.142L794.33,370.162L794.146,370.182L793.963,370.2L793.778,370.217L793.594,370.233L793.409,370.247L793.224,370.261L793.038,370.273L792.852,370.284L792.666,370.294L792.48,370.303L792.293,370.311L792.106,370.317L791.918,370.323L791.731,370.327L791.543,370.33L791.355,370.332L791.166,370.332L790.978,370.332L790.789,370.33L790.601,370.327L790.414,370.323L790.226,370.317L790.039,370.311L789.853,370.303L789.666,370.294L789.48,370.284L789.294,370.273L789.109,370.261L788.923,370.247L788.739,370.233L788.554,370.217L788.37,370.2L788.186,370.182L788.002,370.162L787.819,370.142L787.636,370.12L787.454,370.098L787.271,370.074L787.09,370.049L786.908,370.023L786.727,369.996L786.546,369.968L786.366,369.938L786.186,369.908L786.006,369.876L785.827,369.844L785.648,369.81L785.469,369.775L785.291,369.739L785.114,369.702L784.936,369.664L784.759,369.625L784.583,369.585L784.407,369.544L784.231,369.501L784.056,369.458L783.881,369.413L783.706,369.368L783.532,369.321L783.359,369.274L783.185,369.225L783.013,369.175L782.84,369.125L782.668,369.073L782.497,369.02L782.326,368.966L782.156,368.911L781.985,368.856L781.816,368.799L781.647,368.741L781.478,368.682L781.31,368.622L781.142,368.561L780.975,368.499L780.808,368.437L780.642,368.373L780.476,368.308L780.311,368.242L780.146,368.175L779.982,368.108L779.818,368.039L779.655,367.969L779.492,367.898L779.33,367.827L779.168,367.754L779.007,367.681L778.846,367.606L778.686,367.531L778.526,367.454L778.367,367.377L778.208,367.299L778.05,367.22L777.893,367.14L777.736,367.059L777.58,366.977L777.424,366.894L777.269,366.81L777.114,366.725L776.96,366.64L776.806,366.553L776.653,366.466L776.501,366.377L776.349,366.288L776.198,366.198L776.047,366.107L775.897,366.015L775.748,365.923L775.599,365.829L775.451,365.735L775.303,365.639L775.156,365.543L775.01,365.446L774.864,365.348L774.719,365.25L774.574,365.15L774.43,365.05L774.287,364.948L774.144,364.846L774.002,364.743L773.861,364.639L773.72,364.535L773.58,364.429L773.441,364.323L773.302,364.216L773.164,364.108L773.026,364L772.89,363.89L772.754,363.78L772.618,363.669L772.484,363.557L772.349,363.444L772.216,363.331L772.083,363.216L771.951,363.101L771.82,362.986L771.69,362.869L771.56,362.752L771.431,362.634L771.302,362.515L771.174,362.395L771.047,362.275L770.921,362.154L770.796,362.032L770.671,361.909L770.547,361.786L770.423,361.662L770.301,361.537L770.179,361.411L770.058,361.285L769.937,361.158L769.818,361.03L769.699,360.902L769.581,360.773L769.463,360.643L769.347,360.512L769.231,360.381L769.116,360.249L769.002,360.116L768.888,359.983L768.775,359.849L768.664,359.714L768.553,359.579L768.442,359.443L768.333,359.306L768.224,359.168L768.116,359.03L768.009,358.892L767.903,358.752L767.797,358.612L767.693,358.471L767.589,358.33L767.486,358.188L767.384,358.045L767.283,357.902L767.182,357.758L767.083,357.614L766.984,357.468L766.886,357.323L766.789,357.176L766.693,357.029L766.598,356.882L766.503,356.733L766.41,356.585L766.317,356.435L766.225,356.285L766.134,356.134L766.044,355.983L765.955,355.831L765.867,355.679L765.779,355.526L765.693,355.372L765.607,355.218L765.522,355.064L765.439,354.908L765.356,354.753L765.274,354.596L765.193,354.439L765.113,354.282L765.033,354.124L764.955,353.965L764.878,353.806L764.802,353.647L764.726,353.486L764.652,353.326L764.578,353.164L764.506,353.003L764.434,352.84L764.363,352.678L764.294,352.514L764.225,352.351L764.157,352.186L764.09,352.021L764.024,351.856L763.96,351.69L763.896,351.524L763.833,351.357L763.771,351.19L763.71,351.022L763.65,350.854L763.591,350.686L763.534,350.516L763.477,350.347L763.421,350.177L763.366,350.006L763.312,349.835L763.259,349.664L763.208,349.492L763.157,349.32L763.107,349.147L763.059,348.974L763.011,348.8L762.964,348.626L762.919,348.452L762.874,348.277L762.831,348.101L762.789,347.926L762.747,347.75L762.707,347.573L762.668,347.396L762.63,347.219L762.593,347.041L762.557,346.863L762.522,346.684L762.489,346.506L762.456,346.326L762.424,346.147L762.394,345.967L762.365,345.786L762.336,345.605L762.309,345.424L762.283,345.243L762.258,345.061L762.235,344.879L762.212,344.696L762.19,344.513L762.17,344.33L762.151,344.146L762.133,343.963L762.116,343.778L762.1,343.594L762.085,343.409L762.072,343.224L762.059,343.038L762.048,342.852L762.038,342.666L762.029,342.48L762.021,342.293L762.015,342.106L762.01,341.918L762.005,341.731L762.002,341.543L762.001,341.355L762,341.166L762.001,340.978L762.002,340.789L762.005,340.601L762.01,340.414L762.015,340.226L762.021,340.039L762.029,339.853L762.038,339.666L762.048,339.48L762.059,339.294L762.072,339.109L762.085,338.923L762.1,338.739L762.116,338.554L762.133,338.37L762.151,338.186L762.17,338.002L762.19,337.819L762.212,337.636L762.235,337.454L762.258,337.271L762.283,337.09L762.309,336.908L762.336,336.727L762.365,336.546L762.394,336.366L762.424,336.186L762.456,336.006L762.489,335.827L762.522,335.648L762.557,335.469L762.593,335.291L762.63,335.114L762.668,334.936L762.707,334.759L762.747,334.583L762.789,334.407L762.831,334.231L762.874,334.056L762.919,333.881L762.964,333.706L763.011,333.532L763.059,333.359L763.107,333.185L763.157,333.013L763.208,332.84L763.259,332.668L763.312,332.497L763.366,332.326L763.421,332.156L763.477,331.985L763.534,331.816L763.591,331.647L763.65,331.478L763.71,331.31L763.771,331.142L763.833,330.975L763.896,330.808L763.96,330.642L764.024,330.476L764.09,330.311L764.157,330.146L764.225,329.982L764.294,329.818L764.363,329.655L764.434,329.492L764.506,329.33L764.578,329.168L764.652,329.007L764.726,328.846L764.802,328.686L764.878,328.526L764.955,328.367L765.033,328.208L765.113,328.05L765.193,327.893L765.274,327.736L765.356,327.58L765.439,327.424L765.522,327.269L765.607,327.114L765.693,326.96L765.779,326.806L765.867,326.653L765.955,326.501L766.044,326.349L766.134,326.198L766.225,326.047L766.317,325.897L766.41,325.748L766.503,325.599L766.598,325.451L766.693,325.303L766.789,325.156L766.886,325.01L766.984,324.864L767.083,324.719L767.182,324.574L767.283,324.43L767.384,324.287L767.486,324.144L767.589,324.002L767.693,323.861L767.797,323.72L767.903,323.58L768.009,323.441L768.116,323.302L768.224,323.164L768.333,323.026L768.442,322.89L768.553,322.754L768.664,322.618L768.775,322.484L768.888,322.349L769.002,322.216L769.116,322.083L769.231,321.951L769.347,321.82L769.463,321.69L769.581,321.56L769.699,321.431L769.818,321.302L769.937,321.174L770.058,321.047L770.179,320.921L770.301,320.796L770.423,320.671L770.547,320.547L770.671,320.423L770.796,320.301L770.921,320.179L771.047,320.058L771.174,319.937L771.302,319.818L771.431,319.699L771.56,319.581L771.69,319.463L771.82,319.347L771.951,319.231L772.083,319.116L772.216,319.002L772.349,318.888L772.484,318.775L772.618,318.664L772.754,318.553L772.89,318.442L773.026,318.333L773.164,318.224L773.302,318.116L773.441,318.009L773.58,317.903L773.72,317.797L773.861,317.693L774.002,317.589L774.144,317.486L774.287,317.384L774.43,317.283L774.574,317.182L774.719,317.083L774.864,316.984L775.01,316.886L775.156,316.789L775.303,316.693L775.451,316.598L775.599,316.503L775.748,316.41L775.897,316.317L776.047,316.225L776.198,316.134L776.349,316.044L776.501,315.955L776.653,315.867L776.806,315.779L776.96,315.693L777.114,315.607L777.269,315.522L777.424,315.439L777.58,315.356L777.736,315.274L777.893,315.193L778.05,315.113L778.208,315.033L778.367,314.955L778.526,314.878L778.686,314.802L778.846,314.726L779.007,314.652L779.168,314.578L779.33,314.506L779.492,314.434L779.655,314.363L779.818,314.294L779.982,314.225L780.146,314.157L780.311,314.09L780.476,314.024L780.642,313.96L780.808,313.896L780.975,313.833L781.142,313.771L781.31,313.71L781.478,313.65L781.647,313.591L781.816,313.534L781.985,313.477L782.156,313.421L782.326,313.366L782.497,313.312L782.668,313.259L782.84,313.208L783.013,313.157L783.185,313.107L783.359,313.059L783.532,313.011L783.706,312.964L783.881,312.919L784.056,312.874L784.231,312.831L784.407,312.789L784.583,312.747L784.759,312.707L784.936,312.668L785.114,312.63L785.291,312.593L785.469,312.557L785.648,312.522L785.827,312.489L786.006,312.456L786.186,312.424L786.366,312.394L786.546,312.365L786.727,312.336L786.908,312.309L787.09,312.283L787.271,312.258L787.454,312.235L787.636,312.212L787.819,312.19L788.002,312.17L788.186,312.151L788.37,312.133L788.554,312.116L788.739,312.1L788.923,312.085L789.109,312.072L789.294,312.059L789.48,312.048L789.666,312.038L789.853,312.029L790.039,312.021L790.226,312.015L790.414,312.01L790.601,312.005L790.789,312.002L790.978,312.001L791.166,312L791.355,312.001ZM790.986,313.316L790.806,313.318L790.626,313.321L790.447,313.325L790.268,313.33L790.09,313.336L789.911,313.344L789.733,313.352L789.555,313.362L789.378,313.372L789.2,313.384L789.023,313.397L788.847,313.411L788.671,313.426L788.495,313.442L788.319,313.46L788.144,313.478L787.969,313.498L787.794,313.518L787.62,313.54L787.446,313.562L787.272,313.586L787.099,313.611L786.926,313.637L786.753,313.664L786.581,313.692L786.409,313.721L786.238,313.751L786.067,313.782L785.896,313.814L785.725,313.848L785.555,313.882L785.386,313.917L785.216,313.954L785.047,313.991L784.879,314.029L784.711,314.069L784.543,314.109L784.376,314.151L784.209,314.193L784.042,314.237L783.876,314.281L783.711,314.326L783.545,314.373L783.38,314.42L783.216,314.469L783.052,314.518L782.888,314.568L782.725,314.62L782.562,314.672L782.4,314.725L782.238,314.78L782.077,314.835L781.916,314.891L781.755,314.948L781.595,315.006L781.435,315.066L781.276,315.126L781.117,315.186L780.959,315.248L780.801,315.311L780.644,315.375L780.487,315.44L780.331,315.505L780.175,315.572L780.019,315.639L779.865,315.708L779.71,315.777L779.556,315.847L779.403,315.918L779.25,315.99L779.098,316.063L778.946,316.137L778.794,316.212L778.643,316.287L778.493,316.364L778.343,316.441L778.194,316.519L778.045,316.598L777.897,316.678L777.749,316.759L777.602,316.841L777.455,316.924L777.309,317.007L777.164,317.091L777.019,317.177L776.875,317.262L776.731,317.349L776.587,317.437L776.445,317.526L776.302,317.615L776.161,317.705L776.02,317.796L775.88,317.888L775.74,317.981L775.601,318.074L775.462,318.168L775.324,318.264L775.186,318.36L775.05,318.456L774.913,318.554L774.778,318.652L774.643,318.751L774.508,318.851L774.375,318.952L774.241,319.053L774.109,319.155L773.977,319.259L773.846,319.362L773.715,319.467L773.585,319.572L773.456,319.678L773.327,319.785L773.199,319.893L773.072,320.001L772.945,320.11L772.819,320.22L772.694,320.331L772.569,320.442L772.445,320.554L772.321,320.667L772.199,320.781L772.077,320.895L771.955,321.01L771.835,321.126L771.715,321.242L771.596,321.359L771.477,321.477L771.359,321.596L771.242,321.715L771.126,321.835L771.01,321.955L770.895,322.077L770.781,322.199L770.667,322.321L770.554,322.445L770.442,322.569L770.331,322.694L770.22,322.819L770.11,322.945L770.001,323.072L769.893,323.199L769.785,323.327L769.678,323.456L769.572,323.585L769.467,323.715L769.362,323.846L769.259,323.977L769.156,324.109L769.053,324.241L768.952,324.375L768.851,324.509L768.751,324.643L768.652,324.778L768.554,324.913L768.456,325.05L768.36,325.186L768.264,325.324L768.168,325.462L768.074,325.6L767.981,325.74L767.888,325.88L767.796,326.02L767.705,326.161L767.615,326.303L767.526,326.445L767.437,326.587L767.349,326.731L767.263,326.875L767.176,327.019L767.091,327.164L767.007,327.309L766.924,327.456L766.841,327.602L766.759,327.749L766.678,327.897L766.599,328.045L766.519,328.194L766.441,328.344L766.364,328.493L766.287,328.643L766.212,328.794L766.137,328.946L766.063,329.098L765.99,329.25L765.918,329.403L765.847,329.556L765.777,329.71L765.708,329.865L765.639,330.019L765.572,330.175L765.505,330.331L765.44,330.487L765.375,330.644L765.311,330.801L765.248,330.959L765.187,331.117L765.125,331.276L765.065,331.435L765.006,331.595L764.948,331.755L764.891,331.916L764.835,332.076L764.78,332.238L764.726,332.4L764.672,332.562L764.62,332.725L764.569,332.888L764.518,333.052L764.469,333.216L764.42,333.38L764.373,333.545L764.326,333.71L764.281,333.876L764.237,334.042L764.193,334.209L764.151,334.376L764.109,334.543L764.069,334.711L764.029,334.879L763.991,335.047L763.954,335.216L763.917,335.386L763.882,335.555L763.848,335.726L763.814,335.896L763.782,336.066L763.751,336.238L763.721,336.409L763.692,336.581L763.664,336.753L763.637,336.926L763.611,337.099L763.586,337.272L763.562,337.446L763.54,337.62L763.518,337.794L763.498,337.969L763.478,338.144L763.46,338.319L763.442,338.495L763.426,338.671L763.411,338.847L763.397,339.023L763.384,339.2L763.372,339.378L763.362,339.555L763.352,339.733L763.344,339.911L763.336,340.089L763.33,340.268L763.325,340.447L763.321,340.627L763.318,340.806L763.316,340.986L763.316,341.166L763.316,341.346L763.318,341.526L763.321,341.706L763.325,341.885L763.33,342.064L763.336,342.243L763.344,342.421L763.352,342.599L763.362,342.777L763.372,342.955L763.384,343.132L763.397,343.309L763.411,343.486L763.426,343.662L763.442,343.838L763.46,344.013L763.478,344.189L763.498,344.364L763.518,344.538L763.54,344.713L763.562,344.887L763.586,345.06L763.611,345.233L763.637,345.406L763.664,345.579L763.692,345.751L763.721,345.923L763.751,346.095L763.782,346.266L763.814,346.436L763.848,346.607L763.882,346.777L763.917,346.947L763.954,347.116L763.991,347.285L764.029,347.453L764.069,347.621L764.109,347.789L764.151,347.957L764.193,348.123L764.237,348.29L764.281,348.456L764.326,348.622L764.373,348.787L764.42,348.952L764.469,349.116L764.518,349.281L764.569,349.444L764.62,349.607L764.672,349.77L764.726,349.932L764.78,350.094L764.835,350.256L764.891,350.417L764.948,350.577L765.006,350.737L765.065,350.897L765.125,351.056L765.187,351.215L765.248,351.373L765.311,351.531L765.375,351.688L765.44,351.845L765.505,352.001L765.572,352.157L765.639,352.313L765.708,352.468L765.777,352.622L765.847,352.776L765.918,352.93L765.99,353.082L766.063,353.234L766.137,353.387L766.212,353.538L766.287,353.689L766.364,353.839L766.441,353.989L766.519,354.138L766.599,354.287L766.678,354.435L766.759,354.583L766.841,354.73L766.924,354.877L767.007,355.023L767.091,355.168L767.176,355.313L767.263,355.458L767.349,355.602L767.437,355.745L767.526,355.888L767.615,356.03L767.705,356.171L767.796,356.312L767.888,356.453L767.981,356.592L768.074,356.732L768.168,356.87L768.264,357.008L768.36,357.146L768.456,357.283L768.554,357.419L768.652,357.555L768.751,357.69L768.851,357.824L768.952,357.958L769.053,358.091L769.156,358.223L769.259,358.355L769.362,358.487L769.467,358.617L769.572,358.747L769.678,358.876L769.785,359.005L769.893,359.133L770.001,359.261L770.11,359.387L770.22,359.513L770.331,359.639L770.442,359.764L770.554,359.888L770.667,360.011L770.781,360.134L770.895,360.255L771.01,360.377L771.126,360.498L771.242,360.618L771.359,360.737L771.477,360.855L771.596,360.973L771.715,361.09L771.835,361.207L771.955,361.322L772.077,361.437L772.199,361.552L772.321,361.665L772.445,361.778L772.569,361.89L772.694,362.001L772.819,362.112L772.945,362.222L773.072,362.331L773.199,362.439L773.327,362.547L773.456,362.654L773.585,362.76L773.715,362.865L773.846,362.97L773.977,363.074L774.109,363.177L774.241,363.279L774.375,363.381L774.508,363.481L774.643,363.581L774.778,363.68L774.913,363.779L775.05,363.876L775.186,363.973L775.324,364.069L775.462,364.164L775.601,364.258L775.74,364.352L775.88,364.444L776.02,364.536L776.161,364.627L776.303,364.717L776.445,364.807L776.587,364.895L776.731,364.983L776.875,365.07L777.019,365.156L777.164,365.241L777.309,365.325L777.455,365.409L777.602,365.491L777.749,365.573L777.897,365.654L778.045,365.734L778.194,365.813L778.343,365.891L778.493,365.969L778.643,366.045L778.794,366.121L778.946,366.195L779.098,366.269L779.25,366.342L779.403,366.414L779.556,366.485L779.71,366.555L779.865,366.625L780.019,366.693L780.175,366.761L780.331,366.827L780.487,366.893L780.644,366.957L780.801,367.021L780.959,367.084L781.117,367.146L781.276,367.207L781.435,367.267L781.595,367.326L781.755,367.384L781.916,367.441L782.077,367.497L782.238,367.553L782.4,367.607L782.562,367.66L782.725,367.712L782.888,367.764L783.052,367.814L783.216,367.864L783.38,367.912L783.545,367.959L783.711,368.006L783.876,368.051L784.042,368.096L784.209,368.139L784.376,368.182L784.543,368.223L784.711,368.263L784.879,368.303L785.047,368.341L785.216,368.379L785.386,368.415L785.555,368.45L785.725,368.485L785.896,368.518L786.067,368.55L786.238,368.581L786.409,368.611L786.581,368.64L786.753,368.668L786.926,368.695L787.099,368.721L787.272,368.746L787.446,368.77L787.62,368.793L787.794,368.814L787.969,368.835L788.144,368.854L788.319,368.873L788.495,368.89L788.671,368.906L788.847,368.921L789.023,368.935L789.2,368.948L789.378,368.96L789.555,368.971L789.733,368.98L789.911,368.989L790.089,368.996L790.268,369.002L790.447,369.007L790.626,369.011L790.806,369.014L790.986,369.016L791.166,369.017L791.346,369.016L791.526,369.014L791.706,369.011L791.885,369.007L792.064,369.002L792.243,368.996L792.421,368.989L792.599,368.98L792.777,368.971L792.955,368.96L793.132,368.948L793.309,368.935L793.485,368.921L793.662,368.906L793.838,368.89L794.013,368.873L794.189,368.854L794.364,368.835L794.538,368.814L794.713,368.793L794.887,368.77L795.06,368.746L795.233,368.721L795.406,368.695L795.579,368.668L795.751,368.64L795.923,368.611L796.095,368.581L796.266,368.55L796.437,368.518L796.607,368.485L796.777,368.45L796.947,368.415L797.116,368.379L797.285,368.341L797.453,368.303L797.621,368.263L797.789,368.223L797.956,368.182L798.123,368.139L798.29,368.096L798.456,368.051L798.622,368.006L798.787,367.959L798.952,367.912L799.117,367.864L799.28,367.814L799.444,367.764L799.607,367.712L799.77,367.66L799.932,367.607L800.094,367.553L800.256,367.497L800.417,367.441L800.577,367.384L800.737,367.326L800.897,367.267L801.056,367.207L801.215,367.146L801.373,367.084L801.531,367.021L801.688,366.957L801.845,366.893L802.002,366.827L802.157,366.76L802.313,366.693L802.468,366.625L802.622,366.555L802.776,366.485L802.93,366.414L803.082,366.342L803.235,366.269L803.387,366.195L803.538,366.121L803.689,366.045L803.839,365.969L803.989,365.891L804.138,365.813L804.287,365.734L804.435,365.654L804.583,365.573L804.73,365.491L804.877,365.409L805.023,365.325L805.168,365.241L805.313,365.156L805.458,365.07L805.602,364.983L805.745,364.895L805.888,364.807L806.03,364.717L806.171,364.627L806.312,364.536L806.453,364.444L806.592,364.352L806.732,364.258L806.87,364.164L807.008,364.069L807.146,363.973L807.283,363.876L807.419,363.779L807.555,363.68L807.69,363.581L807.824,363.481L807.958,363.381L808.091,363.279L808.223,363.177L808.355,363.074L808.487,362.97L808.617,362.865L808.747,362.76L808.876,362.654L809.005,362.547L809.133,362.439L809.261,362.331L809.387,362.222L809.513,362.112L809.639,362.001L809.763,361.89L809.887,361.778L810.011,361.665L810.133,361.552L810.256,361.437L810.377,361.322L810.498,361.207L810.617,361.09L810.737,360.973L810.855,360.855L810.973,360.737L811.09,360.617L811.207,360.497L811.322,360.377L811.437,360.256L811.552,360.134L811.665,360.011L811.778,359.888L811.89,359.764L812.001,359.639L812.112,359.513L812.222,359.387L812.331,359.261L812.439,359.133L812.547,359.005L812.654,358.876L812.76,358.747L812.865,358.617L812.97,358.486L813.074,358.355L813.177,358.223L813.279,358.091L813.381,357.958L813.481,357.824L813.581,357.689L813.68,357.555L813.778,357.419L813.876,357.283L813.973,357.146L814.069,357.009L814.164,356.87L814.258,356.732L814.352,356.592L814.444,356.453L814.536,356.312L814.627,356.171L814.717,356.03L814.807,355.888L814.895,355.745L814.983,355.602L815.07,355.458L815.156,355.313L815.241,355.168L815.325,355.023L815.409,354.877L815.491,354.73L815.573,354.583L815.654,354.435L815.734,354.287L815.813,354.138L815.891,353.989L815.969,353.839L816.045,353.689L816.121,353.538L816.195,353.387L816.269,353.235L816.342,353.082L816.414,352.929L816.485,352.776L816.555,352.622L816.625,352.468L816.693,352.313L816.76,352.157L816.827,352.001L816.893,351.845L816.957,351.688L817.021,351.531L817.084,351.373L817.146,351.215L817.207,351.056L817.267,350.897L817.326,350.737L817.384,350.577L817.441,350.417L817.497,350.256L817.553,350.095L817.607,349.933L817.66,349.77L817.712,349.607L817.764,349.444L817.814,349.281L817.864,349.117L817.912,348.952L817.959,348.787L818.006,348.622L818.051,348.456L818.096,348.29L818.139,348.124L818.182,347.957L818.223,347.789L818.263,347.622L818.303,347.453L818.341,347.285L818.379,347.116L818.415,346.947L818.45,346.777L818.485,346.607L818.518,346.437L818.55,346.266L818.581,346.095L818.611,345.923L818.64,345.751L818.668,345.579L818.695,345.407L818.721,345.233L818.746,345.06L818.77,344.887L818.793,344.713L818.814,344.538L818.835,344.364L818.854,344.189L818.873,344.013L818.89,343.838L818.906,343.662L818.921,343.485L818.935,343.309L818.948,343.132L818.96,342.955L818.971,342.777L818.98,342.6L818.989,342.421L818.996,342.243L819.002,342.064L819.007,341.885L819.011,341.706L819.014,341.526L819.016,341.346L819.017,341.166L819.016,340.986L819.014,340.806L819.011,340.626L819.007,340.447L819.002,340.268L818.996,340.089L818.989,339.911L818.98,339.733L818.971,339.555L818.96,339.378L818.948,339.2L818.935,339.023L818.921,338.847L818.906,338.671L818.89,338.495L818.873,338.319L818.854,338.144L818.835,337.969L818.814,337.794L818.793,337.62L818.77,337.446L818.746,337.272L818.721,337.099L818.695,336.926L818.668,336.753L818.64,336.581L818.611,336.409L818.581,336.238L818.55,336.066L818.518,335.896L818.485,335.725L818.45,335.555L818.415,335.386L818.379,335.216L818.341,335.048L818.303,334.879L818.263,334.711L818.223,334.543L818.182,334.376L818.139,334.209L818.096,334.042L818.051,333.876L818.006,333.71L817.959,333.545L817.912,333.38L817.864,333.216L817.814,333.052L817.764,332.888L817.712,332.725L817.66,332.562L817.607,332.4L817.553,332.238L817.497,332.077L817.441,331.916L817.384,331.755L817.326,331.595L817.267,331.435L817.207,331.276L817.146,331.117L817.084,330.959L817.021,330.801L816.957,330.644L816.893,330.487L816.827,330.331L816.76,330.175L816.693,330.019L816.625,329.865L816.555,329.71L816.485,329.557L816.414,329.403L816.342,329.25L816.269,329.098L816.195,328.946L816.121,328.794L816.045,328.643L815.969,328.493L815.891,328.343L815.813,328.194L815.734,328.045L815.654,327.897L815.573,327.749L815.491,327.602L815.409,327.455L815.325,327.309L815.241,327.164L815.156,327.019L815.07,326.875L814.983,326.731L814.895,326.587L814.807,326.445L814.717,326.303L814.627,326.161L814.536,326.02L814.444,325.879L814.352,325.74L814.258,325.601L814.164,325.462L814.069,325.324L813.973,325.186L813.876,325.05L813.778,324.913L813.68,324.778L813.581,324.643L813.481,324.508L813.381,324.374L813.279,324.242L813.177,324.109L813.074,323.977L812.97,323.846L812.865,323.715L812.76,323.585L812.654,323.456L812.547,323.327L812.439,323.199L812.331,323.072L812.222,322.945L812.112,322.819L812.001,322.694L811.89,322.569L811.778,322.445L811.665,322.321L811.552,322.199L811.437,322.077L811.322,321.955L811.207,321.835L811.09,321.715L810.973,321.596L810.855,321.477L810.737,321.359L810.617,321.242L810.498,321.126L810.377,321.01L810.256,320.895L810.133,320.781L810.011,320.667L809.887,320.554L809.763,320.442L809.639,320.331L809.513,320.22L809.387,320.11L809.261,320.001L809.133,319.893L809.005,319.785L808.876,319.678L808.747,319.572L808.617,319.467L808.487,319.362L808.355,319.259L808.223,319.155L808.091,319.053L807.958,318.952L807.824,318.851L807.69,318.751L807.555,318.652L807.419,318.554L807.283,318.456L807.146,318.36L807.008,318.264L806.87,318.168L806.732,318.074L806.592,317.981L806.453,317.888L806.312,317.796L806.171,317.705L806.03,317.615L805.888,317.526L805.745,317.437L805.602,317.349L805.458,317.263L805.313,317.177L805.168,317.091L805.023,317.007L804.877,316.924L804.73,316.841L804.583,316.759L804.435,316.678L804.287,316.598L804.138,316.519L803.989,316.441L803.839,316.364L803.689,316.287L803.538,316.212L803.387,316.137L803.235,316.063L803.082,315.99L802.93,315.918L802.776,315.847L802.622,315.777L802.468,315.708L802.313,315.639L802.157,315.572L802.002,315.505L801.845,315.44L801.688,315.375L801.531,315.311L801.373,315.248L801.215,315.186L801.056,315.126L800.897,315.066L800.737,315.006L800.577,314.948L800.417,314.891L800.256,314.835L800.094,314.78L799.932,314.725L799.77,314.672L799.607,314.62L799.444,314.569L799.28,314.518L799.117,314.469L798.952,314.42L798.787,314.373L798.622,314.326L798.456,314.281L798.29,314.237L798.123,314.193L797.956,314.151L797.789,314.109L797.621,314.069L797.453,314.029L797.285,313.991L797.116,313.954L796.947,313.917L796.777,313.882L796.607,313.848L796.437,313.814L796.266,313.782L796.095,313.751L795.923,313.721L795.751,313.692L795.579,313.664L795.406,313.637L795.233,313.611L795.06,313.586L794.887,313.562L794.713,313.54L794.538,313.518L794.364,313.498L794.189,313.478L794.013,313.46L793.838,313.442L793.662,313.426L793.485,313.411L793.309,313.397L793.132,313.384L792.955,313.372L792.777,313.362L792.599,313.352L792.421,313.344L792.243,313.336L792.064,313.33L791.885,313.325L791.706,313.321L791.526,313.318L791.346,313.316L791.166,313.316L790.986,313.316Z"/>
            </g>
        </g>
    </g>
</svg>
