<?xml version="1.0" encoding="UTF-8" standalone="no"?>
<!DOCTYPE svg PUBLIC "-//W3C//DTD SVG 1.1//EN" "http://www.w3.org/Graphics/SVG/1.1/DTD/svg11.dtd">
<svg width="100%" height="100%" viewBox="0 0 218 218" version="1.1" xmlns="http://www.w3.org/2000/svg" xmlns:xlink="http://www.w3.org/1999/xlink" xml:space="preserve" xmlns:serif="http://www.serif.com/" style="fill-rule:evenodd;clip-rule:evenodd;stroke-linejoin:round;stroke-miterlimit:1.41421;">
    <g transform="matrix(1,0,0,1,-1151,-576)">
        <g transform="matrix(-1,-1.22298e-16,1.22298e-16,-1,2006,1344)">
            <path d="M855,550L637,550L637,768L855,550Z" style="fill:rgb(135,149,160);"/>
            <g transform="matrix(-1.07471,1.31435e-16,-2.24213e-16,-1.83333,1868.62,2150)">
                <rect x="972" y="840" width="174" height="12" style="fill:url(#_Linear1);"/>
            </g>
            <g transform="matrix(-0.764368,9.34807e-17,-2.24213e-16,-1.83333,1512.97,2206)">
                <rect x="972" y="840" width="174" height="12" style="fill:url(#_Linear2);"/>
            </g>
            <g transform="matrix(-0.451564,5.52254e-17,-2.24213e-16,-1.83333,1154.49,2258)">
                <rect x="972" y="840" width="174" height="12" style="fill:url(#_Linear3);"/>
            </g>
        </g>
    </g>
    <defs>
        <linearGradient id="_Linear1" x1="0" y1="0" x2="1" y2="0" gradientUnits="userSpaceOnUse" gradientTransform="matrix(1.30573e-15,-12,21.3242,7.34788e-16,1059,852)"><stop offset="0" style="stop-color:rgb(34,40,45);stop-opacity:1"/><stop offset="0.5" style="stop-color:rgb(100,118,140);stop-opacity:1"/><stop offset="1" style="stop-color:rgb(78,108,134);stop-opacity:1"/></linearGradient>
        <linearGradient id="_Linear2" x1="0" y1="0" x2="1" y2="0" gradientUnits="userSpaceOnUse" gradientTransform="matrix(1.30573e-15,-12,21.3242,7.34788e-16,1059,852)"><stop offset="0" style="stop-color:rgb(34,40,45);stop-opacity:1"/><stop offset="0.5" style="stop-color:rgb(100,118,140);stop-opacity:1"/><stop offset="1" style="stop-color:rgb(78,108,134);stop-opacity:1"/></linearGradient>
        <linearGradient id="_Linear3" x1="0" y1="0" x2="1" y2="0" gradientUnits="userSpaceOnUse" gradientTransform="matrix(1.30573e-15,-12,21.3242,7.34788e-16,1059,852)"><stop offset="0" style="stop-color:rgb(34,40,45);stop-opacity:1"/><stop offset="0.5" style="stop-color:rgb(100,118,140);stop-opacity:1"/><stop offset="1" style="stop-color:rgb(78,108,134);stop-opacity:1"/></linearGradient>
    </defs>
</svg>
